<svg width="182" height="52" viewBox="0 0 182 52" fill="none" xmlns="http://www.w3.org/2000/svg">
<path d="M60.7915 33.0909V12.8676H57.4753V33.0909H60.7915Z" fill="#110229"/>
<path d="M62.8212 26.3498C62.8212 30.4815 65.5938 33.4171 69.807 33.4171C74.0201 33.4171 76.7927 30.4815 76.7927 26.3498C76.7927 22.2182 74.0201 19.2826 69.807 19.2826C65.5938 19.2826 62.8212 22.2182 62.8212 26.3498ZM66.1646 26.3498C66.1646 23.9307 67.6052 22.2454 69.807 22.2454C72.0087 22.2454 73.4493 23.9307 73.4493 26.3498C73.4493 28.7418 72.0087 30.4543 69.807 30.4543C67.6052 30.4543 66.1646 28.7418 66.1646 26.3498Z" fill="#110229"/>
<path d="M77.9081 26.078C77.9081 29.9922 80.436 32.8191 84.2142 32.8191C86.1713 32.8191 87.8566 32.0308 88.6992 30.7261V33.0094C88.6992 35.2111 87.313 36.6789 85.0025 36.6789C82.9367 36.6789 81.5232 35.6732 81.333 33.9064H77.9896C78.4245 37.4128 81.1155 39.6961 84.8122 39.6961C89.1613 39.6961 91.9339 36.842 91.9339 32.4114V19.6631H88.9982L88.808 21.4843C87.9925 20.0708 86.3072 19.2282 84.323 19.2282C80.4903 19.2282 77.9081 22.1366 77.9081 26.078ZM81.2786 25.9965C81.2786 23.7675 82.6921 22.1366 84.7851 22.1366C87.0683 22.1366 88.5905 23.7947 88.5905 25.9965C88.5905 28.2254 87.0683 29.9378 84.7851 29.9378C82.7192 29.9378 81.2786 28.2525 81.2786 25.9965Z" fill="#110229"/>
<path d="M93.575 26.3498C93.575 30.4815 96.3475 33.4171 100.561 33.4171C104.774 33.4171 107.546 30.4815 107.546 26.3498C107.546 22.2182 104.774 19.2826 100.561 19.2826C96.3475 19.2826 93.575 22.2182 93.575 26.3498ZM96.9183 26.3498C96.9183 23.9307 98.3589 22.2454 100.561 22.2454C102.762 22.2454 104.203 23.9307 104.203 26.3498C104.203 28.7418 102.762 30.4543 100.561 30.4543C98.3589 30.4543 96.9183 28.7418 96.9183 26.3498Z" fill="#110229"/>
<path d="M111.135 16.9177C112.222 16.9177 113.119 16.0479 113.119 14.9334C113.119 13.8462 112.222 12.9763 111.135 12.9763C110.021 12.9763 109.178 13.8462 109.178 14.9334C109.178 16.0479 110.021 16.9177 111.135 16.9177ZM109.477 33.0909H112.793V19.6631H109.477V33.0909Z" fill="#110229"/>
<path d="M115.699 39.3156H118.933V31.2426C119.776 32.6288 121.597 33.4443 123.609 33.4443C127.577 33.4443 129.942 30.3999 129.888 26.2139C129.806 22.0007 127.387 19.2554 123.582 19.2554C121.543 19.2554 119.695 20.1524 118.879 21.7017L118.689 19.6631H115.699V39.3156ZM119.069 26.377C119.069 23.9578 120.537 22.2726 122.848 22.2726C125.158 22.2726 126.544 23.985 126.544 26.377C126.544 28.769 125.158 30.4543 122.848 30.4543C120.537 30.4543 119.069 28.7962 119.069 26.377Z" fill="#110229"/>
<path d="M130.729 29.068C130.838 31.7318 132.904 33.4443 136.111 33.4443C139.264 33.4443 141.412 31.759 141.412 29.1496C141.412 27.2196 140.216 25.9149 138.014 25.3713L135.649 24.8005C134.643 24.5286 133.964 24.1753 133.964 23.3055C133.964 22.3813 134.698 21.7289 135.894 21.7289C137.144 21.7289 137.96 22.4356 137.96 23.6045H140.977C140.868 20.9406 138.884 19.2554 135.975 19.2554C133.094 19.2554 130.947 20.9406 130.947 23.4957C130.947 25.2354 131.952 26.676 134.535 27.3556L136.872 27.9536C137.742 28.1982 138.286 28.6059 138.286 29.367C138.286 30.4271 137.28 30.9164 136.057 30.9164C134.589 30.9164 133.746 30.2368 133.746 29.068H130.729Z" fill="#110229"/>
<path d="M148.291 33.4443C150.112 33.4443 151.852 32.6016 152.64 31.3513L152.858 33.0909H155.956V19.6631H152.64V26.7032C152.64 29.1224 151.716 30.4815 149.541 30.4815C147.856 30.4815 146.687 29.666 146.687 26.8935V19.6631H143.371V28.0623C143.371 31.2697 145.111 33.4443 148.291 33.4443Z" fill="#110229"/>
<path d="M162.199 33.0909V25.3713C162.199 23.1967 163.476 22.1638 165.053 22.1638C166.629 22.1638 167.662 23.1696 167.662 25.0723V33.0909H170.897V25.3985C170.897 23.1967 172.147 22.1638 173.724 22.1638C175.327 22.1638 176.36 23.1696 176.36 25.0723V33.0909H179.568V24.3112C179.568 21.2125 177.855 19.2554 174.594 19.2554C172.555 19.2554 170.951 20.2339 170.299 21.8105C169.565 20.2339 168.097 19.2554 165.868 19.2554C164.292 19.2554 162.878 19.9893 162.09 21.1853L161.927 19.6631H158.882V33.0909H162.199Z" fill="#110229"/>
<path d="M154.249 45.0911C154.743 45.0911 155.172 44.6751 155.172 44.1811C155.172 43.6741 154.743 43.2581 154.249 43.2581C153.742 43.2581 153.313 43.6741 153.313 44.1811C153.313 44.6751 153.742 45.0911 154.249 45.0911Z" fill="#110229"/>
<path d="M156.125 41.7371C156.125 43.7261 157.347 45.0651 159.128 45.0651C160.662 45.0651 161.832 44.1421 162.079 42.7641H160.909C160.688 43.5311 160.012 43.9861 159.206 43.9861C158.062 43.9861 157.334 43.1021 157.334 41.7241C157.334 40.3201 158.101 39.4621 159.232 39.4621C160.012 39.4621 160.688 39.8781 160.896 40.6971H162.066C161.858 39.3061 160.766 38.3701 159.245 38.3701C157.399 38.3701 156.125 39.7351 156.125 41.7371Z" fill="#110229"/>
<path d="M162.54 41.7241C162.54 43.6351 163.84 45.0651 165.79 45.0651C167.74 45.0651 169.04 43.6351 169.04 41.7241C169.04 39.8131 167.74 38.3831 165.79 38.3831C163.84 38.3831 162.54 39.8131 162.54 41.7241ZM163.775 41.7241C163.775 40.4241 164.568 39.4751 165.79 39.4751C167.012 39.4751 167.805 40.4241 167.805 41.7241C167.805 43.0241 167.012 43.9731 165.79 43.9731C164.568 43.9731 163.775 43.0241 163.775 41.7241Z" fill="#110229"/>
<path d="M171.306 44.9221V41.1001C171.306 40.0991 171.93 39.4491 172.84 39.4491C173.711 39.4491 174.257 40.0081 174.257 41.0091V44.9221H175.453V41.1131C175.453 40.0991 176.064 39.4491 176.987 39.4491C177.845 39.4491 178.391 40.0081 178.391 41.0091V44.9221H179.574V40.7491C179.574 39.2801 178.716 38.3831 177.26 38.3831C176.272 38.3831 175.505 38.8641 175.193 39.6441C174.868 38.8641 174.153 38.3831 173.113 38.3831C172.32 38.3831 171.618 38.7471 171.267 39.3711L171.176 38.5651H170.084V44.9221H171.306Z" fill="#110229"/>
<path fill-rule="evenodd" clip-rule="evenodd" d="M2.36365 26.5145L2.36593 26.2776L2.37063 26.0407L2.37777 25.8037L2.38733 25.5668L2.39934 25.3298L2.41377 25.0928L2.43064 24.856L2.44994 24.6192L2.47169 24.3825L2.49587 24.1457L2.52248 23.9094L2.55152 23.673L2.583 23.4369L2.61692 23.201L2.65326 22.9653L2.69204 22.73L2.73325 22.4949L2.77687 22.2601L2.82293 22.0257L2.8714 21.7916L2.9223 21.5578L2.9756 21.3245L3.03134 21.0917L3.08946 20.8592L3.15001 20.6273L3.21294 20.3958L3.27828 20.1649L3.34601 19.9346L3.41613 19.7048L3.48862 19.4757L3.5635 19.2471L3.64076 19.0191L3.72037 18.7919L3.80235 18.5653L3.88668 18.3395L3.97336 18.1143L4.06238 17.89L4.15374 17.6664L4.24742 17.4438L4.34342 17.2218L4.44173 17.0007L4.54235 16.7805L4.64527 16.5613L4.75047 16.3429L4.85796 16.1254L4.96771 15.9091L5.07973 15.6936L5.194 15.4791L5.3105 15.2658L5.42924 15.0534L5.55021 14.8421L5.67338 14.632L5.79876 14.4229L5.92632 14.215L6.05607 14.0083L6.18799 13.8028L6.32207 13.5986L6.45829 13.3954L6.59665 13.1937L6.73713 12.9932L6.87972 12.7939L7.0244 12.5961L7.17117 12.3994L7.32 12.2043L7.47091 12.0105L7.62385 11.818L7.77882 11.627L7.93581 11.4375L8.0948 11.2494L8.25579 11.0628L8.41875 10.8777L8.58366 10.6942L8.75052 10.5122L8.91932 10.3317L9.09003 10.1529L9.26263 9.97562L9.43711 9.79999L9.61347 9.626L9.79167 9.45368L9.97171 9.28304L10.1536 9.11411L10.3372 8.94688L10.5227 8.7814L10.7099 8.61768L10.8988 8.45571L11.0895 8.29555L11.2819 8.1372L11.476 7.98066L11.6718 7.82598L11.8692 7.67314L12.0683 7.5222L12.2691 7.37314L12.4714 7.226L12.6752 7.08079L12.8806 6.93752L13.0877 6.79621L13.2962 6.65686L13.5062 6.51952L13.7177 6.38418L13.9308 6.25087L14.1452 6.1196L14.3611 5.99036L14.5783 5.86321L14.797 5.73814L15.017 5.61516L15.2384 5.4943L15.461 5.37555L15.685 5.25895L15.9102 5.14449L16.1368 5.0322L16.3645 4.9221L16.5936 4.81417L16.8237 4.70846L17.0551 4.60497L17.2875 4.5037L17.5212 4.40467L17.7559 4.3079L17.9917 4.21339L18.2285 4.12115L18.4664 4.03122L18.7052 3.94356L18.9452 3.85823L19.186 3.77521L19.4278 3.69452L19.6704 3.61617L19.914 3.54017L20.1585 3.46653L20.4039 3.39527L20.6499 3.32638L20.8969 3.25987L21.1446 3.19575L21.3931 3.13405L21.6422 3.07477L21.8921 3.01789L22.1427 2.96346L22.3938 2.91144L22.6457 2.86188L22.8981 2.81477L23.1511 2.77011L23.4047 2.72792L23.6588 2.6882L23.9134 2.65095L24.1684 2.61619L24.4239 2.58391L24.6799 2.55413L24.9363 2.52683L25.193 2.50206L25.45 2.47978L25.7074 2.46001L25.965 2.44277L27.3506 2.36365L27.4297 9.03935L27.4749 9.03883L27.6663 9.03856L27.8576 9.04016L28.0489 9.04365L28.2405 9.04903L28.432 9.05628L28.6235 9.06541L28.8151 9.07643L29.0067 9.08935L29.1981 9.10414L29.3897 9.12082L29.581 9.1394L29.7724 9.15987L29.9635 9.18222L30.1546 9.20646L30.3454 9.23259L30.5362 9.2606L30.7267 9.29051L30.9171 9.3223L31.1071 9.35597L31.297 9.39153L31.4866 9.42897L31.6758 9.4683L31.8649 9.5095L32.0535 9.55258L32.2418 9.59752L32.4298 9.64435L32.6174 9.69305L32.8045 9.74361L32.9912 9.79603L33.1776 9.85031L33.3633 9.90645L33.5486 9.96444L33.7335 10.0243L33.9178 10.086L34.1016 10.1495L34.2848 10.2149L34.4675 10.2821L34.6495 10.3511L34.8309 10.4219L35.0117 10.4946L35.1918 10.5691L35.3712 10.6453L35.5501 10.7234L35.7282 10.8033L35.9054 10.885L36.082 10.9684L36.2578 11.0536L36.4329 11.1406L36.6071 11.2294L36.7804 11.3199L36.953 11.4121L37.1247 11.5061L37.2955 11.6019L37.4654 11.6993L37.6344 11.7985L37.8025 11.8994L37.9696 12.002L38.1358 12.1062L38.3009 12.2122L38.465 12.3198L38.6281 12.4291L38.7902 12.54L38.9512 12.6526L39.1112 12.7668L39.2701 12.8827L39.4277 13.0001L39.5844 13.1193L39.7398 13.2399L39.8942 13.3622L40.0472 13.486L40.1992 13.6114L40.3499 13.7384L40.4994 13.8669L40.6477 13.9969L40.7947 14.1284L40.9403 14.2615L41.0847 14.3961L41.2279 14.5321L41.3697 14.6696L41.5101 14.8085L41.6492 14.9489L41.7869 15.0909L41.9232 15.2341L42.0581 15.3788L42.1916 15.5248L42.3236 15.6723L42.4542 15.8211L42.5834 15.9713L42.711 16.1228L42.8373 16.2757L42.9619 16.4299L43.0851 16.5853L43.2067 16.742L43.3268 16.9L43.4453 17.0593L43.5622 17.2198L43.6775 17.3816L43.7912 17.5446L43.9034 17.7086L44.0139 17.8739L44.1227 18.0405L44.2299 18.2082L44.3353 18.3769L44.4392 18.5468L44.5413 18.7178L44.6418 18.8898L44.7405 19.063L44.8375 19.2372L44.9327 19.4124L45.0262 19.5886L45.1179 19.7659L45.2079 19.9441L45.296 20.1233L45.3824 20.3035L45.467 20.4846L45.5498 20.6666L45.6307 20.8495L45.7098 21.0333L45.787 21.218L45.8624 21.4034L45.9359 21.5898L46.0075 21.7769L46.0772 21.9649L46.1451 22.1535L46.211 22.3431L46.2751 22.5333L46.3372 22.7242L46.3974 22.9158L46.4556 23.1081L46.5119 23.3011L46.5663 23.4947L46.6186 23.689L46.6691 23.8838L46.7174 24.0792L46.764 24.2753L46.8084 24.4718L46.8508 24.6689L46.8914 24.8664L46.9298 25.0646L46.9662 25.2631L47.0007 25.4622L47.0331 25.6615L47.0634 25.8614L47.0918 26.0617L47.118 26.2623L47.1423 26.4633L47.1645 26.6645L47.1846 26.8662L47.2027 27.068L47.2187 27.2702L47.2327 27.4727L47.2445 27.6754L47.2543 27.8782L47.2621 28.0813L47.2677 28.2845L47.2713 28.4879L47.2727 28.6914L47.2722 28.895L47.2694 29.0987L47.2646 29.3026L47.2577 29.5063L47.2488 29.7102L47.2378 29.9141L47.2245 30.1179L47.2093 30.3218L47.1919 30.5255L47.1724 30.7293L47.1509 30.9329L47.1271 31.1363L47.1014 31.3397L47.0736 31.5429L47.0436 31.7459L47.0116 31.9487L46.9774 32.1513L46.9411 32.3536L46.9028 32.5557L46.8624 32.7575L46.8199 32.959L46.7752 33.1602L46.7285 33.3611L46.6798 33.5615L46.6289 33.7616L46.5759 33.9612L46.521 34.1605L46.4639 34.3592L46.4048 34.5576L46.3436 34.7555L46.2803 34.9528L46.215 35.1497L46.1477 35.3458L46.0782 35.5415L46.0068 35.7367L45.9333 35.9311L45.8578 36.1249L45.7802 36.3181L45.7007 36.5106L45.6191 36.7024L45.5356 36.8937L45.45 37.0839L45.3625 37.2736L45.2729 37.4625L45.1814 37.6505L45.0878 37.8378L44.9924 38.0242L44.8949 38.2099L44.7957 38.3944L44.6943 38.5783L44.5911 38.7612L44.4859 38.9432L44.3788 39.1242L44.2699 39.3042L44.159 39.4834L44.0461 39.6614L43.9315 39.8384L43.8151 40.0144L43.6967 40.1893L43.5765 40.3631L43.4544 40.5359L43.3306 40.7075L43.2048 40.878L43.0773 41.0474L42.948 41.2156L42.8169 41.3824L42.6841 41.5482L42.5495 41.7128L42.4131 41.876L42.275 42.038L42.1351 42.1987L41.9936 42.3582L41.8503 42.5163L41.7054 42.6731L41.5589 42.8285L41.4106 42.9826L41.2607 43.1352L41.1091 43.2865L40.9559 43.4363L40.8012 43.5848L40.6449 43.7318L40.487 43.8773L40.3274 44.0213L40.1664 44.1637L40.0039 44.3047L39.8397 44.4443L39.6741 44.5822L39.507 44.7185L39.3385 44.8533L39.1684 44.9865L38.9969 45.118L38.824 45.2479L38.6497 45.3763L38.4741 45.503L38.297 45.6279L38.1185 45.7513L37.9387 45.8729L37.7577 45.9927L37.5752 46.1109L37.3916 46.2274L37.2066 46.3421L37.0204 46.455L36.8328 46.5661L36.6441 46.6756L36.4543 46.7831L36.263 46.8888L36.0709 46.9928L35.8774 47.0948L35.6829 47.195L35.4872 47.2934L35.2904 47.3899L35.0926 47.4844L34.8937 47.5772L34.6937 47.6679L34.4928 47.7568L34.2908 47.8437L34.0879 47.9286L33.884 48.0117L33.6792 48.0928L33.4735 48.1719L33.2668 48.249L33.0593 48.3241L32.8508 48.3972L32.6416 48.4683L32.4316 48.5374L32.2206 48.6044L32.009 48.6694L31.7966 48.7324L31.5835 48.7933L31.3696 48.8521L31.1551 48.909L30.9398 48.9636L30.724 49.0162L30.5075 49.0667L30.2903 49.1151L30.0726 49.1614L29.8543 49.2056L29.6354 49.2477L29.4161 49.2876L29.1962 49.3253L28.9758 49.361L28.7551 49.3946L28.5337 49.4259L28.3121 49.4551L28.0901 49.4821L27.8675 49.507L27.6448 49.5297L27.4216 49.5502L27.1983 49.5685L26.9745 49.5847L26.7506 49.5987L26.5263 49.6105L26.3019 49.6201L26.0773 49.6274L25.8524 49.6326L25.6275 49.6355L25.4024 49.6364L25.1772 49.635L24.952 49.6313L24.7266 49.6255L24.5012 49.6173L24.2759 49.6071L24.0505 49.5947L23.8252 49.5799L23.5999 49.563L23.3747 49.5438L23.1496 49.5224L22.9246 49.4989L22.6998 49.4732L22.4751 49.4452L22.2506 49.4149L22.0264 49.3824L21.8023 49.3478L21.5786 49.3109L21.3551 49.2719L21.1319 49.2305L20.9091 49.187L20.6866 49.1414L20.4645 49.0934L20.2427 49.0433L20.0214 48.9911L19.8005 48.9366L19.5801 48.8799L19.3602 48.821L19.1409 48.7601L18.922 48.6968L18.7036 48.6315L18.4859 48.5639L18.2688 48.4942L18.0523 48.4223L17.8364 48.3482L17.6212 48.272L17.4067 48.1937L17.1929 48.1133L16.9798 48.0306L16.7675 47.9459L16.556 47.859L16.3453 47.7701L16.1354 47.6791L15.9263 47.5859L15.7181 47.4907L15.5108 47.3933L15.3044 47.2939L15.099 47.1924L14.8945 47.0888L14.691 46.9833L14.4885 46.8757L14.2869 46.7661L14.0865 46.6544L13.8871 46.5407L13.6888 46.425L13.4915 46.3073L13.2955 46.1877L13.1005 46.066L12.9066 45.9425L12.7141 45.8169L12.5227 45.6895L12.3325 45.5599L12.1437 45.4286L11.956 45.2954L11.7696 45.1602L11.5846 45.0233L11.4009 44.8843L11.2185 44.7435L11.0375 44.601L10.8579 44.4565L10.6797 44.3103L10.5029 44.1622L10.3275 44.0123L10.1536 43.8607L9.98125 43.7072L9.81036 43.552L9.64099 43.3952L9.47315 43.2365L9.30688 43.0762L9.14218 42.9141L8.97906 42.7504L8.81757 42.5851L8.6577 42.4179L8.49948 42.2493L8.34293 42.079L8.18806 41.9071L8.03489 41.7336L7.88342 41.5585L7.7337 41.3819L7.58572 41.2038L7.43952 41.024L7.29509 40.8428L7.15247 40.6601L7.01166 40.476L6.87267 40.2903L6.73554 40.1032L6.60027 39.9147L6.46686 39.7248L6.33536 39.5336L6.20576 39.341L6.07809 39.1469L5.95236 38.9517L5.82856 38.755L5.70674 38.5571L5.5869 38.3579L5.46905 38.1574L5.35322 37.9558L5.2394 37.7528L5.12761 37.5487L5.01788 37.3433L4.91019 37.1369L4.8046 36.9293L4.70107 36.7206L4.59966 36.5109L4.50035 36.2999L4.40316 36.088L4.3081 35.8749L4.21519 35.661L4.12444 35.4459L4.03586 35.23L3.94945 35.013L3.86523 34.7951L3.78322 34.5764L3.70342 34.3566L3.62583 34.1361L3.55046 33.9148L3.47735 33.6925L3.40648 33.4695L3.33787 33.2456L3.27153 33.0211L3.20747 32.7957L3.14568 32.5696L3.08619 32.3429L3.029 32.1156L2.97412 31.8875L2.92156 31.6588L2.87132 31.4294L2.82341 31.1995L2.77784 30.9691L2.73461 30.7382L2.69373 30.5066L2.65521 30.2747L2.61905 30.0422L2.58526 29.8092L2.55385 29.5758L2.52482 29.3421L2.49817 29.108L2.47391 28.8735L2.45205 28.6388L2.43258 28.4036L2.41552 28.1682L2.40086 27.9325L2.38862 27.6966L2.37879 27.4605L2.37136 27.2243L2.36637 26.9878L2.3638 26.7512L2.36365 26.5145ZM25.265 9.17918L25.2112 4.62894L25.16 4.63388L24.925 4.65889L24.6907 4.68617L24.4564 4.71576L24.2232 4.74755L23.9901 4.78166L23.7573 4.81805L23.5252 4.85667L23.2933 4.8976L23.0626 4.94065L22.8316 4.98611L22.6022 5.03362L22.3724 5.08353L22.1439 5.13555L21.9155 5.18989L21.6883 5.24631L21.4616 5.305L21.2355 5.36588L21.0101 5.42895L20.7858 5.49414L20.5619 5.56158L20.3391 5.6311L20.1169 5.70284L19.8959 5.77656L19.6753 5.85261L19.4558 5.93069L19.2374 6.01084L19.0196 6.09318L18.803 6.17753L18.5875 6.26391L18.3727 6.35251L18.1589 6.44312L17.9462 6.5358L17.7346 6.63042L17.5241 6.72711L17.3148 6.82574L17.1062 6.92655L16.8992 7.02921L16.6932 7.13386L16.4884 7.24048L16.2848 7.34908L16.0826 7.45953L15.8812 7.57203L15.6811 7.68647L15.4828 7.80255L15.2851 7.9209L15.0892 8.04082L14.8947 8.1626L14.7011 8.28639L14.5091 8.41198L14.3184 8.5394L14.1296 8.66833L13.9415 8.79953L13.7552 8.93215L13.5704 9.06659L13.3868 9.20288L13.2049 9.34078L13.0247 9.48034L12.8455 9.62187L12.6684 9.76474L12.4925 9.90949L12.3183 10.0558L12.1457 10.2038L11.9748 10.3533L11.8052 10.5046L11.6375 10.6573L11.4712 10.8117L11.3069 10.9675L11.1441 11.1249L10.9831 11.2837L10.8237 11.4442L10.6659 11.6062L10.5102 11.7694L10.3562 11.934L10.2035 12.1005L10.053 12.2681L9.90433 12.4369L9.75719 12.6074L9.61218 12.779L9.46877 12.9521L9.3273 13.1265L9.18768 13.3022L9.04988 13.4791L8.91411 13.6572L8.78012 13.8366L8.64797 14.0174L8.51794 14.1991L8.38966 14.3823L8.26341 14.5664L8.13912 14.7517L8.0167 14.9382L7.89634 15.1257L7.77796 15.3142L7.66156 15.5039L7.54724 15.6946L7.43481 15.8864L7.32439 16.0792L7.21615 16.2728L7.10984 16.4675L7.00557 16.6632L6.90341 16.8597L6.80327 17.0572L6.70527 17.2554L6.60932 17.4545L6.51548 17.6545L6.42369 17.8554L6.33407 18.0569L6.24649 18.2593L6.16104 18.4625L6.07778 18.6662L5.9966 18.8708L5.91755 19.0761L5.84068 19.282L5.76593 19.4885L5.69339 19.6956L5.62294 19.9035L5.55468 20.1118L5.4886 20.3208L5.42471 20.5301L5.36295 20.7402L5.30342 20.9506L5.24607 21.1615L5.19089 21.3728L5.13791 21.5847L5.08714 21.7969L5.03856 22.0095L4.99219 22.2224L4.94802 22.4358L4.90607 22.6493L4.86631 22.8632L4.82878 23.0774L4.79345 23.2919L4.76035 23.5065L4.72946 23.7213L4.70079 23.9364L4.67433 24.1516L4.65009 24.367L4.62807 24.5825L4.60828 24.7981L4.59069 25.0137L4.57533 25.2295L4.56218 25.4453L4.55125 25.6609L4.54254 25.8767L4.53604 26.0924L4.53176 26.3081L4.52968 26.5237L4.52983 26.7392L4.53217 26.9546L4.53672 27.1699L4.54346 27.385L4.55241 27.5998L4.56357 27.8146L4.5769 28.029L4.59243 28.2432L4.61014 28.4571L4.63004 28.6708L4.65211 28.8842L4.67636 29.0972L4.70277 29.3099L4.73135 29.5222L4.76209 29.7341L4.79499 29.9456L4.83002 30.1566L4.86721 30.3672L4.90653 30.5773L4.94798 30.7868L4.99155 30.996L5.03724 31.2045L5.08504 31.4125L5.13495 31.6199L5.18695 31.8267L5.24106 32.033L5.29722 32.2384L5.35548 32.4433L5.4158 32.6475L5.47818 32.851L5.54261 33.0538L5.60906 33.2558L5.67756 33.457L5.74809 33.6575L5.82063 33.8572L5.89516 34.056L5.97173 34.2541L6.05024 34.4512L6.13073 34.6475L6.21321 34.8428L6.29763 35.0373L6.384 35.2308L6.47231 35.4235L6.56254 35.615L6.65468 35.8057L6.74873 35.9952L6.84465 36.1839L6.94247 36.3714L7.04215 36.5579L7.14369 36.7433L7.24706 36.9276L7.35227 37.1108L7.45929 37.2929L7.56814 37.4737L7.67872 37.6535L7.79116 37.832L7.90531 38.0093L8.02125 38.1855L8.13892 38.3604L8.2583 38.534L8.37939 38.7064L8.50221 38.8776L8.62668 39.0474L8.75286 39.2159L8.88064 39.383L9.01013 39.5489L9.14117 39.7132L9.27387 39.8763L9.4082 40.0381L9.54402 40.1984L9.68147 40.3572L9.82044 40.5146L9.96099 40.6706L10.103 40.8251L10.2465 40.9781L10.3916 41.1296L10.538 41.2797L10.686 41.4283L10.8354 41.5752L10.9863 41.7207L11.1385 41.8645L11.2921 42.0069L11.4471 42.1477L11.6034 42.2868L11.761 42.4242L11.9201 42.5601L12.0804 42.6944L12.2419 42.827L12.4048 42.958L12.5689 43.0872L12.7342 43.2148L12.9007 43.3408L13.0686 43.465L13.2374 43.5875L13.4075 43.7083L13.5786 43.8273L13.7511 43.9446L13.9244 44.0601L14.0991 44.1739L14.2746 44.2859L14.4513 44.3961L14.629 44.5046L14.8076 44.6112L14.9874 44.716L15.1679 44.8189L15.3496 44.9201L15.5321 45.0194L15.7156 45.1169L15.8998 45.2125L16.085 45.3063L16.2712 45.3981L16.4581 45.4882L16.6458 45.5764L16.8343 45.6626L17.0235 45.7469L17.2137 45.8294L17.4044 45.9099L17.596 45.9886L17.7881 46.0653L17.981 46.14L18.1746 46.2129L18.3687 46.2838L18.5634 46.3527L18.7589 46.4197L18.9548 46.4848L19.1514 46.5479L19.3483 46.609L19.546 46.6682L19.7439 46.7254L19.9425 46.7806L20.1415 46.8339L20.3409 46.8852L20.5407 46.9345L20.7408 46.9818L20.9415 47.0272L21.1424 47.0704L21.3435 47.1118L21.5451 47.1511L21.747 47.1885L21.9491 47.2238L22.1514 47.2571L22.354 47.2885L22.5568 47.3178L22.7598 47.3451L22.9629 47.3705L23.1661 47.3938L23.3695 47.415L23.573 47.4344L23.7767 47.4517L23.9803 47.467L24.1839 47.4803L24.3877 47.4916L24.5913 47.5008L24.7949 47.5082L24.9985 47.5135L25.2022 47.5167L25.4056 47.518L25.609 47.5173L25.8122 47.5145L26.0153 47.5099L26.2182 47.5032L26.421 47.4946L26.6235 47.4839L26.8258 47.4713L27.0278 47.4567L27.2297 47.4402L27.4312 47.4216L27.6323 47.4011L27.8333 47.3786L28.0337 47.3543L28.2339 47.3279L28.4336 47.2996L28.633 47.2693L28.8319 47.2372L29.0304 47.203L29.2285 47.167L29.426 47.129L29.623 47.0892L29.8195 47.0474L30.0155 47.0038L30.2108 46.9581L30.4057 46.9106L30.5999 46.8614L30.7935 46.8101L30.9863 46.757L31.1787 46.702L31.3703 46.6452L31.5613 46.5866L31.7515 46.5262L31.941 46.4638L32.1298 46.3997L32.3175 46.3338L32.5049 46.266L32.6912 46.1965L32.8768 46.1251L33.0615 46.052L33.2453 45.9772L33.4282 45.9005L33.6103 45.8222L33.7915 45.7421L33.9716 45.6603L34.151 45.5767L34.3294 45.4914L34.5066 45.4045L34.6831 45.3158L34.8583 45.2255L35.0327 45.1335L35.206 45.0398L35.3781 44.9446L35.5492 44.8477L35.7192 44.7492L35.8883 44.649L36.0559 44.5474L36.2227 44.4439L36.3881 44.3391L36.5524 44.2326L36.7156 44.1246L36.8776 44.0149L37.0381 43.9041L37.1975 43.7915L37.3558 43.6774L37.5127 43.562L37.6685 43.4448L37.8227 43.3265L37.976 43.2065L38.1276 43.0852L38.2779 42.9625L38.4272 42.8383L38.5749 42.7127L38.7211 42.5859L38.8661 42.4575L39.0096 42.328L39.1518 42.1971L39.2925 42.0648L39.4316 41.9314L39.5695 41.7964L39.7059 41.6603L39.8408 41.523L39.9742 41.3843L40.106 41.2446L40.2362 41.1038L40.3653 40.9612L40.4924 40.818L40.6183 40.6734L40.7424 40.5278L40.865 40.3808L40.9861 40.233L41.1054 40.084L41.2234 39.9338L41.3395 39.7827L41.4543 39.6304L41.5672 39.4772L41.6786 39.3229L41.7885 39.1675L41.8963 39.0115L42.0028 38.8542L42.1074 38.6962L42.2104 38.537L42.3119 38.3768L42.4115 38.2161L42.5093 38.0544L42.6056 37.8915L42.6999 37.7283L42.7927 37.5639L42.8838 37.3987L42.9729 37.233L43.0605 37.0661L43.1463 36.8985L43.2301 36.7308L43.3124 36.5617L43.3928 36.392L43.4714 36.2218L43.5482 36.0509L43.6233 35.8793L43.6964 35.7072L43.7679 35.5342L43.8376 35.3607L43.9053 35.1871L43.9712 35.0122L44.0353 34.8373L44.0977 34.6616L44.1582 34.4855L44.2168 34.3088L44.2734 34.1321L44.3285 33.9541L44.3814 33.7764L44.4326 33.598L44.482 33.4195L44.5295 33.2402L44.575 33.0609L44.6189 32.881L44.6607 32.7008L44.7008 32.5205L44.7389 32.3396L44.7751 32.1589L44.8095 31.9774L44.842 31.7964L44.8726 31.6146L44.9013 31.4327L44.9281 31.2508L44.9532 31.0686L44.9762 30.8866L44.9975 30.7038L45.0168 30.5216L45.0343 30.3389L45.0497 30.1566L45.0635 29.9736L45.0753 29.7914L45.0852 29.6086L45.0932 29.4256L45.0994 29.2432L45.1038 29.061L45.1061 28.8782L45.1067 28.6957L45.1054 28.5135L45.1022 28.3314L45.0971 28.1493L45.0902 27.9679L45.0814 27.7857L45.0708 27.6044L45.0583 27.4232L45.044 27.2425L45.0278 27.0614L45.0098 26.8812L44.9899 26.7008L44.9682 26.5211L44.9447 26.3414L44.9194 26.1624L44.8921 25.9832L44.8631 25.8049L44.8324 25.6271L44.7998 25.4493L44.7653 25.272L44.7291 25.0954L44.6911 24.9188L44.6515 24.7434L44.6098 24.5678L44.5666 24.3933L44.5214 24.2187L44.4746 24.0453L44.426 23.8721L44.3756 23.6994L44.3236 23.5276L44.2699 23.3565L44.2142 23.1855L44.1571 23.0158L44.098 22.8462L44.0375 22.6777L43.9751 22.5095L43.9112 22.3425L43.8454 22.1758L43.778 22.01L43.7091 21.8452L43.6385 21.6812L43.566 21.5174L43.4923 21.3551L43.4166 21.193L43.3395 21.0324L43.2608 20.8723L43.1803 20.7129L43.0986 20.5548L43.015 20.3974L42.9298 20.2407L42.8435 20.0855L42.7552 19.9307L42.6657 19.7771L42.5743 19.6243L42.4819 19.4731L42.3875 19.3221L42.292 19.1726L42.1947 19.0239L42.0961 18.8764L41.9963 18.7302L41.8946 18.5846L41.7917 18.4403L41.6875 18.297L41.5817 18.1551L41.4746 18.014L41.3661 17.8743L41.2563 17.7356L41.1451 17.5981L41.0326 17.4618L40.9187 17.3266L40.8035 17.1927L40.6871 17.06L40.5695 16.9286L40.4505 16.7984L40.3299 16.6692L40.2088 16.5418L40.0856 16.4151L39.9619 16.2902L39.8367 16.1662L39.7105 16.0438L39.5827 15.9223L39.4543 15.8027L39.3243 15.684L39.1932 15.5668L39.0615 15.4511L38.9284 15.3367L38.7938 15.2234L38.6585 15.1117L38.5222 15.0014L38.3848 14.8926L38.2463 14.785L38.107 14.6793L37.9663 14.5743L37.8251 14.4714L37.6826 14.3697L37.5392 14.2694L37.3951 14.1707L37.2495 14.0732L37.1039 13.9777L36.9567 13.8833L36.8089 13.7905L36.66 13.6992L36.5105 13.6094L36.3602 13.5212L36.2093 13.4347L36.0569 13.3492L35.9046 13.2658L35.751 13.1837L35.5967 13.1032L35.4419 13.0244L35.2862 12.9469L35.1298 12.8711L34.9729 12.797L34.8151 12.7243L34.657 12.6534L34.498 12.5839L34.3334 12.5139L34.1786 12.45L34.0175 12.3852L33.8566 12.3225L33.6945 12.2609L33.5323 12.2013L33.3695 12.1432L33.2063 12.0868L33.0424 12.0319L32.8783 11.9788L32.7136 11.9273L32.5485 11.8774L32.3833 11.8293L32.2173 11.7827L32.0508 11.7377L31.8845 11.6945L31.7179 11.653L31.5502 11.613L31.3831 11.5748L31.2151 11.5382L31.0472 11.5033L30.8787 11.47L30.7104 11.4385L30.5416 11.4086L30.373 11.3804L30.2035 11.3539L30.0345 11.329L29.8652 11.3058L29.6956 11.2843L29.526 11.2645L29.3564 11.2464L29.1867 11.2299L29.0168 11.2151L28.8469 11.202L28.6768 11.1905L28.5072 11.1807L28.3375 11.1726L28.1672 11.1662L27.9979 11.1614L27.8282 11.1583L27.6586 11.1569L27.4888 11.1572L27.4547 11.1576L27.5083 15.6747L27.6046 15.6742L27.7285 15.6749L27.8525 15.6768L27.9766 15.68L28.1008 15.6844L28.225 15.6901L28.3492 15.6969L28.4736 15.705L28.5979 15.7143L28.7222 15.7248L28.8465 15.7366L28.9708 15.7496L29.0951 15.7639L29.2193 15.7794L29.3434 15.7961L29.4675 15.8142L29.5914 15.8333L29.7153 15.8537L29.8392 15.8755L29.9628 15.8984L30.0863 15.9226L30.2097 15.9481L30.3329 15.9746L30.4559 16.0025L30.5787 16.0317L30.7014 16.0621L30.8237 16.0937L30.9459 16.1265L31.0679 16.1605L31.1896 16.1959L31.3111 16.2324L31.4322 16.2701L31.553 16.3091L31.6736 16.3493L31.7939 16.3908L31.9137 16.4334L32.0333 16.4773L32.1524 16.5223L32.2713 16.5686L32.3898 16.6161L32.5078 16.6648L32.6254 16.7148L32.7426 16.7659L32.8594 16.8182L32.9757 16.8716L33.0915 16.9264L33.207 16.9823L33.3219 17.0393L33.4363 17.0976L33.5502 17.1571L33.6635 17.2176L33.7764 17.2794L33.8887 17.3422L34.0003 17.4063L34.1115 17.4715L34.2222 17.538L34.3321 17.6054L34.4414 17.6741L34.5501 17.7439L34.6583 17.8149L34.7657 17.8868L34.8725 17.96L34.9786 18.0343L35.0841 18.1096L35.1888 18.1861L35.2928 18.2637L35.3962 18.3423L35.4986 18.4221L35.6005 18.5029L35.7016 18.5847L35.8019 18.6677L35.9014 18.7517L36.0002 18.8367L36.0982 18.9227L36.1953 19.0098L36.2916 19.098L36.387 19.1871L36.4817 19.2772L36.5754 19.3684L36.6683 19.4605L36.7604 19.5537L36.8515 19.6479L36.9418 19.7429L37.031 19.839L37.1194 19.936L37.2068 20.034L37.2934 20.1328L37.3789 20.2326L37.4635 20.3333L37.5472 20.4349L37.6298 20.5375L37.7115 20.6409L37.7921 20.7453L37.8717 20.8505L37.9503 20.9566L38.0279 21.0634L38.1044 21.1712L38.1798 21.2798L38.2543 21.3893L38.3276 21.4995L38.3998 21.6105L38.4709 21.7224L38.541 21.835L38.61 21.9484L38.6779 22.0625L38.7445 22.1775L38.8101 22.2931L38.8745 22.4095L38.9377 22.5266L38.9999 22.6445L39.0609 22.763L39.1206 22.8823L39.1792 23.0022L39.2366 23.1228L39.2928 23.2439L39.3477 23.3659L39.4015 23.4883L39.4541 23.6114L39.5054 23.7352L39.5555 23.8595L39.6043 23.9844L39.6518 24.1098L39.6981 24.2359L39.7431 24.3625L39.787 24.4896L39.8295 24.6173L39.8707 24.7455L39.9106 24.8741L39.9493 25.0033L39.9866 25.1329L40.0226 25.263L40.0573 25.3936L40.0907 25.5246L40.1227 25.656L40.1535 25.7878L40.1829 25.92L40.2109 26.0526L40.2376 26.1856L40.2629 26.3189L40.2869 26.4526L40.3096 26.5867L40.3309 26.7209L40.3507 26.8556L40.3693 26.9905L40.3864 27.1257L40.4022 27.2612L40.4165 27.397L40.4295 27.5329L40.4412 27.6692L40.4514 27.8056L40.4603 27.9422L40.4676 28.0789L40.4736 28.2159L40.4782 28.3531L40.4814 28.4903L40.4832 28.6278L40.4836 28.7653L40.4825 28.9029L40.48 29.0406L40.4761 29.1784L40.4708 29.3163L40.4641 29.4541L40.4559 29.592L40.4463 29.7301L40.4353 29.868L40.4228 30.0059L40.409 30.1438L40.3936 30.2816L40.377 30.4195L40.3588 30.5572L40.3391 30.6949L40.3181 30.8325L40.2956 30.9699L40.2718 31.1072L40.2464 31.2444L40.2197 31.3815L40.1914 31.5184L40.1617 31.6551L40.1308 31.7916L40.0983 31.9279L40.0644 32.0639L40.029 32.1998L39.9923 32.3354L39.9541 32.4707L39.9145 32.6057L39.8735 32.7404L39.8311 32.8749L39.7871 33.009L39.7418 33.1427L39.6952 33.2761L39.6472 33.4092L39.5977 33.5418L39.5467 33.674L39.4945 33.8059L39.4408 33.9373L39.3858 34.0684L39.3293 34.1989L39.2715 34.329L39.2123 34.4586L39.1516 34.5877L39.0897 34.7163L39.0264 34.8444L38.9616 34.9719L38.8955 35.0989L38.8282 35.2253L38.7594 35.3512L38.6893 35.4764L38.6179 35.6011L38.5451 35.7251L38.471 35.8486L38.3956 35.9712L38.3189 36.0934L38.2408 36.2148L38.1615 36.3356L38.0808 36.4556L37.9989 36.5749L37.9157 36.6936L37.8312 36.8114L37.7454 36.9285L37.6584 37.0449L37.5701 37.1605L37.4806 37.2753L37.3898 37.3892L37.2977 37.5024L37.2045 37.6147L37.1101 37.7262L37.0143 37.8369L36.9174 37.9467L36.8193 38.0555L36.7201 38.1635L36.6196 38.2706L36.5181 38.3768L36.4153 38.482L36.3114 38.5864L36.2062 38.6897L36.1001 38.7921L35.9926 38.8935L35.8843 38.9939L35.7747 39.0934L35.664 39.1917L35.5523 39.2891L35.4394 39.3855L35.3256 39.4808L35.2106 39.5751L35.0947 39.6682L34.9776 39.7603L34.8595 39.8513L34.7405 39.9412L34.6204 40.03L34.4993 40.1177L34.3773 40.2043L34.2543 40.2896L34.1303 40.3739L34.0053 40.457L33.8794 40.5389L33.7526 40.6196L33.625 40.6991L33.4963 40.7773L33.3669 40.8545L33.2364 40.9304L33.1052 41.005L32.9731 41.0784L32.8401 41.1506L32.7064 41.2215L32.5718 41.2911L32.4363 41.3594L32.3002 41.4264L32.1632 41.4922L32.0254 41.5566L31.8869 41.6198L31.7477 41.6816L31.6077 41.7421L31.467 41.8012L31.3256 41.859L31.1836 41.9154L31.0408 41.9705L30.8975 42.0243L30.7534 42.0766L30.6088 42.1276L30.4634 42.1771L30.3176 42.2253L30.171 42.272L30.024 42.3174L29.8764 42.3613L29.7282 42.4038L29.5795 42.4449L29.4302 42.4845L29.2805 42.5227L29.1303 42.5594L28.9796 42.5947L28.8283 42.6286L28.6768 42.6609L28.5247 42.6918L28.3723 42.7212L28.2195 42.7492L28.0662 42.7757L27.9125 42.8006L27.7587 42.824L27.6043 42.846L27.4496 42.8664L27.2947 42.8855L27.1395 42.9028L26.984 42.9188L26.8282 42.9332L26.6722 42.9461L26.516 42.9574L26.3595 42.9673L26.2028 42.9755L26.046 42.9823L25.8889 42.9875L25.7317 42.9911L25.5744 42.9933L25.4169 42.9938L25.2594 42.9929L25.1018 42.9903L24.9441 42.9863L24.7863 42.9806L24.6285 42.9734L24.4706 42.9647L24.3128 42.9544L24.155 42.9426L23.9972 42.9291L23.8394 42.9141L23.6816 42.8975L23.524 42.8795L23.3665 42.8598L23.2089 42.8386L23.0516 42.8157L22.8944 42.7914L22.7374 42.7655L22.5804 42.738L22.4237 42.709L22.2672 42.6784L22.111 42.6462L21.9549 42.6125L21.7991 42.5773L21.6436 42.5404L21.4883 42.502L21.3334 42.462L21.1787 42.4205L21.0243 42.3775L20.8704 42.333L20.7168 42.2869L20.5635 42.2393L20.4107 42.19L20.2584 42.1393L20.1063 42.087L19.9548 42.0333L19.8037 41.978L19.6531 41.9211L19.503 41.8627L19.3533 41.8029L19.2042 41.7415L19.0557 41.6786L18.9077 41.6143L18.7603 41.5484L18.6134 41.481L18.4672 41.4122L18.3216 41.3419L18.1766 41.2701L18.0322 41.1968L17.8886 41.1221L17.7456 41.0459L17.6033 40.9682L17.4617 40.8891L17.3209 40.8085L17.1807 40.7266L17.0414 40.6432L16.9027 40.5584L16.7649 40.4722L16.628 40.3845L16.4918 40.2955L16.3565 40.205L16.222 40.1132L16.0883 40.02L15.9556 39.9255L15.8237 39.8295L15.6928 39.7323L15.5627 39.6336L15.4336 39.5336L15.3055 39.4323L15.1783 39.3296L15.0521 39.2257L14.9268 39.1204L14.8026 39.014L14.6795 38.9061L14.5573 38.797L14.4362 38.6866L14.3162 38.575L14.1972 38.4622L14.0792 38.348L13.9625 38.2327L13.8469 38.1161L13.7324 37.9983L13.6189 37.8794L13.5067 37.7592L13.3957 37.638L13.2858 37.5154L13.177 37.3918L13.0696 37.267L12.9633 37.1411L12.8583 37.0141L12.7544 36.8859L12.652 36.7567L12.5507 36.6263L12.4507 36.4949L12.352 36.3624L12.2545 36.229L12.1584 36.0944L12.0638 35.9588L11.9703 35.8222L11.8782 35.6847L11.7875 35.5462L11.6982 35.4066L11.6102 35.2661L11.5237 35.1246L11.4385 34.9822L11.3548 34.8389L11.2725 34.6946L11.1916 34.5496L11.1121 34.4036L11.0341 34.2568L10.9576 34.1091L10.8825 33.9605L10.809 33.8111L10.7369 33.6609L10.6663 33.51L10.5972 33.3581L10.5297 33.2057L10.4637 33.0524L10.3992 32.8983L10.3363 32.7436L10.2749 32.5882L10.2151 32.4319L10.1568 32.2751L10.1001 32.1177L10.045 31.9594L9.99155 31.8007L9.93966 31.6413L9.88937 31.4813L9.84071 31.3208L9.79366 31.1596L9.74824 30.9979L9.70445 30.8357L9.66232 30.6728L9.62183 30.5096L9.58299 30.3458L9.54582 30.1815L9.5103 30.0168L9.47647 29.8517L9.44431 29.6861L9.41383 29.5201L9.38504 29.3537L9.35796 29.1869L9.33256 29.0198L9.30886 28.8523L9.28688 28.6845L9.26661 28.5163L9.24806 28.3479L9.23122 28.1793L9.2161 28.0103L9.20272 27.841L9.19107 27.6717L9.18114 27.502L9.17297 27.3322L9.16652 27.1622L9.16183 26.992L9.15888 26.8217L9.15767 26.6512L9.15823 26.4807L9.16052 26.31L9.16459 26.1393L9.17039 25.9686L9.17797 25.7977L9.1873 25.6269L9.19839 25.456L9.21124 25.2852L9.22585 25.1144L9.24223 24.9437L9.26039 24.7729L9.28029 24.6024L9.30196 24.4319L9.3254 24.2614L9.35059 24.0911L9.37756 23.9211L9.40628 23.7511L9.43677 23.5814L9.46902 23.4118L9.50304 23.2425L9.5388 23.0735L9.57633 22.9046L9.61562 22.7361L9.65665 22.5678L9.69943 22.3998L9.74397 22.2323L9.79025 22.0649L9.83828 21.898L9.88806 21.7315L9.93956 21.5654L9.99282 21.3995L10.0478 21.2343L10.1045 21.0695L10.1629 20.9051L10.2231 20.7412L10.285 20.5777L10.3485 20.4149L10.4138 20.2525L10.4808 20.0907L10.5495 19.9295L10.6199 19.7688L10.692 19.6087L10.7658 19.4493L10.8412 19.2905L10.9183 19.1323L10.9971 18.9749L11.0776 18.8181L11.1597 18.6621L11.2434 18.5067L11.3288 18.3521L11.4158 18.1982L11.5045 18.0451L11.5948 17.8929L11.6867 17.7413L11.7802 17.5907L11.8753 17.4408L11.9719 17.2918L12.0703 17.1437L12.17 16.9964L12.2715 16.8501L12.3745 16.7047L12.4789 16.5601L12.5851 16.4166L12.6926 16.274L12.8018 16.1324L12.9124 15.9918L13.0246 15.8522L13.1382 15.7137L13.2533 15.5761L13.3699 15.4396L13.488 15.3042L13.6075 15.1699L13.7285 15.0368L13.8508 14.9046L13.9747 14.7737L14.0999 14.6438L14.2265 14.5152L14.3545 14.3877L14.4839 14.2614L14.6147 14.1363L14.7469 14.0124L14.8803 13.8898L15.0151 13.7683L15.1513 13.6482L15.2886 13.5293L15.4273 13.4118L15.5674 13.2955L15.7086 13.1805L15.8511 13.0668L15.995 12.9545L16.14 12.8435L16.2862 12.734L16.4337 12.6257L16.5822 12.5189L16.732 12.4135L16.883 12.3095L17.0351 12.2069L17.1883 12.1058L17.3427 12.0061L17.4981 11.9079L17.6547 11.8111L17.8124 11.7159L17.9711 11.6221L18.1308 11.5299L18.2916 11.4391L18.4534 11.3499L18.6161 11.2623L18.7799 11.1761L18.9447 11.0916L19.1104 11.0086L19.277 10.9272L19.4446 10.8474L19.6131 10.7692L19.7825 10.6927L19.9528 10.6177L20.1239 10.5444L20.2959 10.4727L20.4686 10.4027L20.6421 10.3343L20.8166 10.2676L20.9917 10.2026L21.1677 10.1392L21.3444 10.0776L21.5217 10.0177L21.6999 9.95943L21.8785 9.90293L22.0581 9.84814L22.2382 9.79509L22.419 9.74378L22.6003 9.69422L22.7823 9.64641L22.9649 9.60037L23.1481 9.5561L23.3317 9.51361L23.516 9.47289L23.7007 9.43396L23.8859 9.39682L24.0716 9.3615L24.2578 9.32797L24.4444 9.29625L24.6315 9.26635L24.8189 9.23827L25.0067 9.21202L25.1948 9.1876L25.265 9.17918ZM25.3445 15.879L25.2903 11.3122L25.1361 11.3338L24.9703 11.3587L24.8044 11.3852L24.6395 11.4132L24.4744 11.4429L24.3101 11.4742L24.1462 11.507L23.9829 11.5414L23.8199 11.5775L23.6573 11.6151L23.4952 11.6543L23.3337 11.695L23.1724 11.7374L23.0175 11.7797L22.8524 11.8266L22.6929 11.8735L22.5342 11.922L22.3763 11.9718L22.2188 12.0234L22.0618 12.0764L21.9056 12.1309L21.7502 12.1868L21.5954 12.2444L21.4413 12.3032L21.2878 12.3637L21.1354 12.4255L20.9831 12.489L20.8319 12.5538L20.6815 12.6199L20.5321 12.6875L20.3831 12.7567L20.2349 12.8272L20.088 12.899L19.9413 12.9724L19.7962 13.0469L19.6513 13.1232L19.5078 13.2003L19.3646 13.2794L19.2228 13.3593L19.0819 13.4407L18.9417 13.5236L18.8026 13.6076L18.6642 13.6931L18.5273 13.7797L18.3909 13.8677L18.2558 13.9569L18.1217 14.0473L17.9885 14.1392L17.8561 14.2323L17.7253 14.3262L17.5952 14.4219L17.4661 14.5185L17.3382 14.6164L17.2115 14.7153L17.0857 14.8156L16.9612 14.9169L16.8378 15.0194L16.7154 15.1233L16.5945 15.2279L16.4744 15.3339L16.3555 15.4409L16.238 15.549L16.1217 15.658L16.0062 15.7684L15.8924 15.8795L15.7796 15.9918L15.668 16.1052L15.5577 16.2195L15.4486 16.335L15.3408 16.4513L15.2344 16.5685L15.1291 16.6868L15.0249 16.8062L14.9226 16.9261L14.8212 17.0473L14.7211 17.1693L14.6224 17.2921L14.5251 17.4158L14.4289 17.5406L14.3343 17.6659L14.2409 17.7923L14.149 17.9194L14.0583 18.0474L13.9692 18.176L13.8814 18.3055L13.7949 18.4359L13.7098 18.567L13.6263 18.6986L13.5441 18.8311L13.4633 18.9645L13.3839 19.0983L13.306 19.2329L13.2294 19.3682L13.1545 19.5039L13.0808 19.6405L13.0085 19.7779L12.938 19.9154L12.8687 20.0539L12.801 20.1929L12.7347 20.3322L12.6699 20.4724L12.6066 20.6129L12.5448 20.754L12.4844 20.8956L12.4256 21.0377L12.3683 21.1802L12.3124 21.3233L12.2581 21.4668L12.2054 21.6106L12.1539 21.755L12.1043 21.8996L12.056 22.0447L12.0093 22.1902L11.964 22.336L11.9204 22.4821L11.8782 22.6285L11.8377 22.7752L11.7986 22.9223L11.7611 23.0696L11.7251 23.2172L11.6906 23.365L11.6577 23.513L11.6263 23.6613L11.5965 23.8097L11.5683 23.9583L11.5415 24.1072L11.5164 24.2561L11.4927 24.4053L11.4707 24.5543L11.4501 24.7037L11.4311 24.8531L11.4137 25.0026L11.3978 25.1521L11.3834 25.3017L11.3706 25.4513L11.3594 25.6008L11.3497 25.7505L11.3415 25.9002L11.3349 26.0496L11.3298 26.1992L11.3262 26.3485L11.3242 26.4979L11.3237 26.6473L11.3248 26.7964L11.3274 26.9455L11.3315 27.0944L11.3371 27.243L11.3443 27.3917L11.3529 27.5402L11.3631 27.6882L11.3748 27.8363L11.3881 27.984L11.4028 28.1315L11.419 28.2788L11.4367 28.4258L11.456 28.5726L11.4767 28.7189L11.4989 28.8651L11.5225 29.0107L11.5477 29.1562L11.5743 29.3013L11.6024 29.4458L11.632 29.5903L11.663 29.7341L11.6955 29.8777L11.7294 30.0206L11.7648 30.1632L11.8016 30.3054L11.8398 30.4471L11.8794 30.5882L11.9205 30.7289L11.963 30.8691L12.0069 31.0088L12.0522 31.148L12.0989 31.2865L12.147 31.4244L12.1964 31.5619L12.2472 31.6987L12.2994 31.835L12.353 31.9706L12.4078 32.1055L12.4641 32.2399L12.5216 32.3736L12.5806 32.5065L12.6407 32.6389L12.7023 32.7704L12.7652 32.9014L12.8292 33.0316L12.8947 33.161L12.9614 33.2898L13.0293 33.4178L13.0986 33.545L13.169 33.6714L13.2407 33.7971L13.3137 33.9219L13.3879 34.0458L13.4633 34.1691L13.5399 34.2914L13.6176 34.4129L13.6967 34.5337L13.7767 34.6533L13.8581 34.7723L13.9405 34.8902L14.0242 35.0074L14.1089 35.1235L14.1948 35.2388L14.2818 35.353L14.37 35.4665L14.4591 35.5789L14.5494 35.6903L14.6407 35.8008L14.7331 35.9104L14.8266 36.0188L14.9212 36.1264L15.0167 36.2328L15.1132 36.3383L15.2107 36.4427L15.3093 36.5461L15.4088 36.6484L15.5094 36.7497L15.6108 36.8499L15.7132 36.9491L15.8166 37.0472L15.9208 37.1441L16.0261 37.24L16.1321 37.3347L16.239 37.4283L16.3469 37.5208L16.4556 37.6122L16.5652 37.7025L16.6756 37.7915L16.7868 37.8794L16.8988 37.9662L17.0117 38.0518L17.1254 38.1362L17.2397 38.2194L17.3548 38.3014L17.4707 38.3823L17.5874 38.4619L17.7048 38.5404L17.8229 38.6176L17.9417 38.6936L18.0612 38.7684L18.1812 38.8419L18.302 38.9142L18.4235 38.9852L18.5455 39.055L18.6682 39.1235L18.7914 39.1908L18.9154 39.2568L19.0398 39.3216L19.1647 39.3849L19.2904 39.4472L19.4166 39.5081L19.5432 39.5678L19.6702 39.626L19.798 39.6831L19.9259 39.7388L20.0545 39.7931L20.1836 39.8463L20.3131 39.8981L20.4429 39.9485L20.5732 39.9977L20.7039 40.0456L20.835 40.0921L20.9664 40.1373L21.0983 40.1812L21.2304 40.2237L21.3629 40.2649L21.4958 40.3047L21.6288 40.3433L21.7621 40.3805L21.8958 40.4163L22.0297 40.4509L22.1638 40.484L22.2982 40.5158L22.4328 40.5463L22.5677 40.5755L22.7026 40.6033L22.8377 40.6296L22.9731 40.6547L23.1085 40.6784L23.2441 40.7009L23.3798 40.7218L23.5156 40.7415L23.6515 40.7599L23.7874 40.7769L23.9234 40.7925L24.0595 40.8068L24.1956 40.8197L24.3318 40.8312L24.4679 40.8414L24.6041 40.8504L24.7401 40.8578L24.8761 40.8641L25.0123 40.8689L25.1482 40.8725L25.284 40.8746L25.4197 40.8754L25.5554 40.875L25.691 40.8731L25.8264 40.87L25.9616 40.8655L26.0968 40.8597L26.2316 40.8525L26.3664 40.8441L26.5009 40.8343L26.6352 40.8232L26.7693 40.8108L26.9032 40.7971L27.0368 40.7821L27.1701 40.7658L27.3032 40.7482L27.4359 40.7294L27.5684 40.7092L27.7005 40.6877L27.8322 40.665L27.9637 40.6409L28.0948 40.6156L28.2255 40.5891L28.356 40.5612L28.4857 40.5321L28.6153 40.5019L28.7443 40.4702L28.873 40.4375L29.0012 40.4034L29.129 40.3681L29.2563 40.3316L29.3831 40.2939L29.5093 40.255L29.6351 40.2148L29.7604 40.1734L29.8851 40.1309L30.0093 40.0872L30.133 40.0423L30.256 39.9962L30.3784 39.9489L30.5003 39.9004L30.6216 39.8508L30.7423 39.8001L30.8623 39.7482L30.9817 39.6953L31.1004 39.6411L31.2186 39.5858L31.336 39.5295L31.4526 39.4722L31.5689 39.4134L31.6841 39.3539L31.7988 39.293L31.9125 39.2313L32.0258 39.1684L32.1383 39.1045L32.2498 39.0395L32.3608 38.9734L32.4709 38.9064L32.5801 38.8383L32.6889 38.7692L32.7964 38.6992L32.9034 38.6281L33.0096 38.5559L33.1148 38.4828L33.219 38.409L33.3228 38.3338L33.4254 38.2581L33.5273 38.1811L33.6283 38.1032L33.728 38.0247L33.8274 37.9449L33.9258 37.8643L34.0228 37.783L34.1195 37.7004L34.2148 37.6173L34.3093 37.5334L34.4031 37.4482L34.4955 37.3626L34.5872 37.276L34.678 37.1885L34.7676 37.1004L34.8563 37.0112L34.9441 36.9214L35.0309 36.8308L35.1164 36.7394L35.2012 36.6472L35.285 36.5544L35.3675 36.4609L35.4492 36.3663L35.5297 36.2713L35.6091 36.1756L35.6877 36.0789L35.765 35.982L35.8414 35.884L35.9167 35.7856L35.9909 35.6863L36.0639 35.5866L36.1358 35.4863L36.2068 35.3851L36.2765 35.2836L36.3452 35.1813L36.4129 35.0784L36.4791 34.9752L36.5446 34.8712L36.6087 34.7666L36.6718 34.6617L36.7336 34.5561L36.7946 34.4499L36.8541 34.3436L36.9127 34.2363L36.97 34.1289L37.026 34.021L37.0812 33.9123L37.1349 33.8038L37.1877 33.6941L37.239 33.5848L37.2896 33.4743L37.3385 33.364L37.3866 33.2528L37.4334 33.1417L37.4789 33.0302L37.5233 32.9181L37.5666 32.8057L37.6084 32.6934L37.6494 32.5803L37.6889 32.467L37.7273 32.3536L37.7645 32.2398L37.8006 32.1256L37.8355 32.0113L37.869 31.8969L37.9014 31.7821L37.9325 31.6672L37.9625 31.552L37.9912 31.4366L38.0188 31.3213L38.0451 31.2053L38.0702 31.0895L38.0942 30.9736L38.1167 30.8576L38.1382 30.7415L38.1584 30.6248L38.1775 30.5086L38.1953 30.3921L38.2119 30.2755L38.2272 30.1591L38.2414 30.0424L38.2544 29.9254L38.2661 29.8092L38.2767 29.6921L38.2861 29.5755L38.2941 29.4591L38.3011 29.3423L38.3068 29.2258L38.3113 29.1094L38.3146 28.9926L38.3166 28.8766L38.3175 28.76L38.3172 28.6439L38.3157 28.5277L38.313 28.412L38.3091 28.296L38.304 28.1803L38.2978 28.0651L38.2903 27.9495L38.2817 27.8343L38.272 27.7197L38.261 27.6047L38.2489 27.4904L38.2355 27.3759L38.2211 27.262L38.2055 27.1481L38.1887 27.0345L38.1707 26.9212L38.1517 26.8084L38.1315 26.6957L38.1101 26.5835L38.0875 26.4711L38.0639 26.3595L38.0392 26.2483L38.0133 26.1372L37.9863 26.0264L37.9582 25.9165L37.9289 25.8062L37.8987 25.6969L37.8672 25.5877L37.8347 25.4792L37.8012 25.3708L37.7664 25.2629L37.7307 25.1557L37.694 25.0489L37.6559 24.9422L37.6172 24.8364L37.5771 24.7309L37.5361 24.626L37.494 24.5214L37.4509 24.4173L37.4068 24.3141L37.3615 24.2111L37.3155 24.1089L37.2683 24.0072L37.2201 23.9058L37.1708 23.805L37.1208 23.7052L37.0695 23.6055L37.0175 23.5068L36.9645 23.4088L36.9103 23.3108L36.8555 23.214L36.7995 23.1176L36.7426 23.0219L36.6847 22.9267L36.6262 22.8325L36.5664 22.7385L36.506 22.6457L36.4446 22.5534L36.3823 22.4618L36.3189 22.3706L36.2549 22.2805L36.1901 22.1911L36.1242 22.1021L36.0576 22.0142L35.99 21.9269L35.922 21.8405L35.8527 21.7546L35.7828 21.6696L35.712 21.5853L35.6405 21.5018L35.5683 21.4193L35.495 21.3373L35.4212 21.2563L35.3465 21.1759L35.2714 21.0968L35.195 21.0179L35.1183 20.9403L35.0406 20.8631L34.9623 20.7871L34.8835 20.712L34.8039 20.6375L34.7234 20.5639L34.6423 20.4913L34.5606 20.4196L34.478 20.3484L34.3954 20.2787L34.3116 20.2093L34.2274 20.1411L34.1425 20.0739L34.0569 20.0072L33.9709 19.9418L33.8845 19.8774L33.7971 19.8135L33.709 19.7506L33.621 19.689L33.5317 19.6279L33.4426 19.5682L33.3527 19.5091L33.2622 19.451L33.1711 19.3938L33.0798 19.3377L32.9876 19.2824L32.8953 19.2283L32.8022 19.1749L32.7092 19.1228L32.6154 19.0715L32.5211 19.021L32.4264 18.9716L32.3315 18.9234L32.236 18.8759L32.14 18.8294L32.044 18.7841L31.9476 18.7397L31.8503 18.6961L31.7533 18.6538L31.6557 18.6125L31.5576 18.5719L31.4594 18.5326L31.3611 18.4943L31.2623 18.4569L31.1629 18.4204L31.0638 18.3852L30.964 18.3508L30.864 18.3175L30.7642 18.2852L30.6638 18.254L30.5635 18.2238L30.4623 18.1945L30.3615 18.1663L30.2605 18.1391L30.1592 18.113L30.0578 18.0879L29.9559 18.0637L29.8543 18.0407L29.7526 18.0187L29.6505 17.9977L29.5482 17.9776L29.4464 17.9588L29.344 17.9408L29.2417 17.9239L29.139 17.908L29.0369 17.8932L28.934 17.8793L28.8318 17.8666L28.7292 17.8548L28.6266 17.844L28.5241 17.8344L28.4214 17.8256L28.3192 17.8179L28.2164 17.8113L28.114 17.8056L28.0119 17.801L27.9091 17.7974L27.8071 17.7948L27.705 17.7932L27.603 17.7926L27.5333 17.7929L27.5861 22.2547L27.6177 22.2548L27.6763 22.2557L27.735 22.2571L27.7939 22.259L27.8528 22.2617L27.9117 22.2649L27.9707 22.2687L28.0298 22.2731L28.0889 22.2782L28.1481 22.2839L28.2073 22.2902L28.2665 22.297L28.3258 22.3046L28.385 22.3127L28.4444 22.3215L28.5037 22.3309L28.563 22.341L28.6222 22.3516L28.6816 22.363L28.7408 22.3748L28.8 22.3874L28.8592 22.4005L28.9184 22.4144L28.9774 22.4288L29.0365 22.4438L29.0954 22.4595L29.1543 22.4758L29.2131 22.4927L29.2719 22.5103L29.3305 22.5285L29.389 22.5474L29.4475 22.5669L29.5058 22.587L29.564 22.6077L29.6221 22.6291L29.68 22.6511L29.7378 22.6737L29.7954 22.6969L29.8529 22.7208L29.9102 22.7453L29.9674 22.7705L30.0243 22.7962L30.0812 22.8226L30.1378 22.8496L30.1942 22.8772L30.2504 22.9054L30.3063 22.9344L30.3621 22.9638L30.4177 22.9939L30.473 23.0247L30.528 23.056L30.5829 23.0879L30.6374 23.1204L30.6917 23.1536L30.7457 23.1874L30.7995 23.2218L30.8529 23.2567L30.9061 23.2922L30.959 23.3285L31.0116 23.3653L31.0639 23.4026L31.1159 23.4405L31.1675 23.4791L31.2188 23.5182L31.2697 23.5579L31.3204 23.5982L31.3707 23.6391L31.4205 23.6805L31.4702 23.7225L31.5193 23.7651L31.5682 23.8082L31.6166 23.8519L31.6646 23.8963L31.7122 23.941L31.7594 23.9864L31.8063 24.0324L31.8526 24.0788L31.8986 24.1259L31.9442 24.1734L31.9892 24.2215L32.0339 24.2702L32.0781 24.3193L32.122 24.369L32.1652 24.4192L32.208 24.4699L32.2504 24.5211L32.2923 24.5728L32.3336 24.6251L32.3745 24.6778L32.4149 24.7311L32.4549 24.7847L32.4942 24.839L32.533 24.8936L32.5714 24.9488L32.6092 25.0044L32.6464 25.0606L32.6832 25.1171L32.7195 25.1742L32.7551 25.2316L32.7902 25.2895L32.8247 25.3479L32.8586 25.4066L32.892 25.4658L32.9248 25.5255L32.957 25.5855L32.9887 25.6461L33.0197 25.7069L33.0502 25.7681L33.0799 25.8298L33.1091 25.892L33.1377 25.9544L33.1657 26.0173L33.1932 26.0805L33.2199 26.1441L33.246 26.208L33.2714 26.2723L33.2962 26.337L33.3204 26.4019L33.344 26.4673L33.3668 26.533L33.389 26.599L33.4105 26.6653L33.4313 26.7319L33.4515 26.7988L33.471 26.866L33.4898 26.9336L33.508 27.0014L33.5255 27.0694L33.5421 27.1379L33.5582 27.2065L33.5736 27.2753L33.5882 27.3446L33.6022 27.4139L33.6153 27.4834L33.6278 27.5534L33.6396 27.6235L33.6508 27.6937L33.661 27.7642L33.6706 27.8349L33.6795 27.9058L33.6876 27.977L33.6951 28.0482L33.7017 28.1196L33.7076 28.1912L33.7128 28.2631L33.7172 28.3349L33.7208 28.407L33.7237 28.4792L33.7259 28.5516L33.7272 28.624L33.7279 28.6966L33.7277 28.7691L33.7269 28.8419L33.7252 28.9148L33.7227 28.9878L33.7195 29.0608L33.7155 29.1338L33.7108 29.207L33.7052 29.2801L33.6989 29.3534L33.6918 29.4267L33.684 29.5L33.6752 29.5732L33.6658 29.6466L33.6556 29.72L33.6446 29.7933L33.6328 29.8666L33.6201 29.9398L33.6068 30.0131L33.5926 30.0864L33.5777 30.1595L33.5619 30.2327L33.5453 30.3057L33.5281 30.3788L33.5099 30.4517L33.491 30.5246L33.4714 30.5973L33.4508 30.67L33.4295 30.7424L33.4074 30.8149L33.3846 30.8872L33.361 30.9593L33.3365 31.0314L33.3113 31.1032L33.2852 31.1748L33.2584 31.2465L33.2309 31.3177L33.2025 31.389L33.1733 31.4599L33.1434 31.5307L33.1127 31.6012L33.0811 31.6717L33.0489 31.7418L33.0158 31.8116L32.9818 31.8813L32.9473 31.9507L32.9119 32.0198L32.8757 32.0887L32.8387 32.1573L32.801 32.2256L32.7626 32.2937L32.7234 32.3614L32.6833 32.4289L32.6427 32.4959L32.6011 32.5628L32.5589 32.6292L32.5159 32.6952L32.472 32.7611L32.4276 32.8264L32.3823 32.8916L32.3363 32.9562L32.2895 33.0205L32.2421 33.0844L32.1939 33.1479L32.145 33.211L32.0954 33.2737L32.045 33.336L31.994 33.3978L31.9422 33.4593L31.8897 33.5203L31.8364 33.5808L31.7825 33.6408L31.7279 33.7005L31.6726 33.7596L31.6167 33.8182L31.56 33.8765L31.5027 33.9341L31.4447 33.9912L31.386 34.048L31.3266 34.1041L31.2666 34.1596L31.2059 34.2147L31.1446 34.2693L31.0827 34.3233L31.02 34.3767L30.9568 34.4296L30.8929 34.4819L30.8283 34.5337L30.7632 34.5847L30.6975 34.6353L30.6312 34.6853L30.5642 34.7347L30.4967 34.7834L30.4285 34.8315L30.3599 34.8791L30.2905 34.9259L30.2206 34.9723L30.1502 35.0178L30.0792 35.0628L30.0076 35.1071L29.9355 35.1507L29.8628 35.1936L29.7896 35.2359L29.7159 35.2775L29.6416 35.3184L29.5669 35.3587L29.4916 35.3982L29.4158 35.4371L29.3395 35.4751L29.2628 35.5126L29.1855 35.5492L29.1077 35.5851L29.0296 35.6204L28.9509 35.6548L28.8718 35.6886L28.7923 35.7215L28.7123 35.7537L28.6318 35.7851L28.551 35.8158L28.4697 35.8457L28.388 35.8749L28.306 35.9033L28.2235 35.9308L28.1406 35.9577L28.0574 35.9835L27.9739 36.0087L27.8899 36.0332L27.8056 36.0567L27.721 36.0795L27.636 36.1014L27.5507 36.1225L27.465 36.1427L27.3791 36.1622L27.2928 36.1808L27.2063 36.1986L27.1194 36.2155L27.0323 36.2316L26.945 36.2468L26.8573 36.2613L26.7695 36.2747L26.6813 36.2874L26.5931 36.2992L26.5044 36.3102L26.4157 36.3202L26.3267 36.3293L26.2374 36.3377L26.1481 36.3451L26.0585 36.3517L25.9687 36.3572L25.8789 36.3621L25.7888 36.366L25.6987 36.3689L25.6082 36.3709L25.5178 36.3721L25.4273 36.3725L25.3367 36.3719L25.2459 36.3703L25.155 36.3679L25.0641 36.3646L24.9731 36.3603L24.882 36.3551L24.7909 36.3491L24.6998 36.3421L24.6087 36.3342L24.5174 36.3253L24.4263 36.3156L24.3351 36.3049L24.2439 36.2933L24.1527 36.2808L24.0616 36.2674L23.9705 36.253L23.8795 36.2378L23.7885 36.2216L23.6976 36.2044L23.6067 36.1865L23.516 36.1674L23.4253 36.1476L23.3348 36.1267L23.2444 36.1049L23.154 36.0823L23.0638 36.0587L22.9739 36.0341L22.8839 36.0087L22.7943 35.9824L22.7048 35.9551L22.6154 35.9268L22.5263 35.8977L22.4373 35.8677L22.3487 35.8368L22.2602 35.8048L22.1719 35.772L22.0839 35.7383L21.9961 35.7037L21.9087 35.6681L21.8215 35.6317L21.7346 35.5944L21.648 35.5561L21.5616 35.517L21.4757 35.4769L21.3899 35.4359L21.3045 35.394L21.2196 35.3513L21.1349 35.3077L21.0507 35.2631L20.9668 35.2177L20.8832 35.1714L20.8001 35.1242L20.7173 35.0761L20.635 35.0272L20.5531 34.9775L20.4717 34.9268L20.3906 34.8752L20.31 34.8229L20.2299 34.7696L20.1502 34.7155L20.0712 34.6605L19.9925 34.6047L19.9142 34.5481L19.8366 34.4905L19.7594 34.4323L19.6828 34.3732L19.6067 34.3132L19.5312 34.2524L19.4562 34.1908L19.3817 34.1284L19.3078 34.0652L19.2346 34.0012L19.1619 33.9364L19.0898 33.8708L19.0183 33.8044L18.9474 33.7373L18.8772 33.6693L18.8075 33.6006L18.7386 33.5311L18.6703 33.461L18.6025 33.3899L18.5355 33.3183L18.4692 33.2457L18.4036 33.1726L18.3386 33.0987L18.2745 33.024L18.2109 32.9487L18.148 32.8726L18.086 32.7958L18.0246 32.7184L17.964 32.6403L17.9041 32.5615L17.845 32.4819L17.7867 32.4018L17.7292 32.321L17.6723 32.2394L17.6163 32.1573L17.5611 32.0746L17.5068 31.9911L17.4532 31.9071L17.4004 31.8225L17.3485 31.7373L17.2973 31.6514L17.2471 31.565L17.1977 31.4779L17.1491 31.3903L17.1014 31.3021L17.0546 31.2134L17.0086 31.124L16.9635 31.0342L16.9193 30.9439L16.876 30.8529L16.8336 30.7616L16.7921 30.6696L16.7516 30.5772L16.7119 30.4842L16.6731 30.3908L16.6353 30.2969L16.5984 30.2026L16.5625 30.1077L16.5276 30.0124L16.4936 29.9167L16.4605 29.8206L16.4283 29.724L16.3973 29.627L16.3671 29.5296L16.3379 29.4319L16.3097 29.3337L16.2825 29.2351L16.2564 29.1362L16.2311 29.0369L16.207 28.9373L16.1838 28.8374L16.1616 28.7371L16.1405 28.6365L16.1204 28.5356L16.1012 28.4344L16.0831 28.3329L16.0661 28.2312L16.0502 28.1292L16.0352 28.0268L16.0212 27.9244L16.0084 27.8215L15.9966 27.7186L15.9859 27.6153L15.9762 27.5119L15.9676 27.4083L15.96 27.3045L15.9535 27.2005L15.9481 27.0964L15.9437 26.9921L15.9404 26.8877L15.9382 26.7831L15.9372 26.6785L15.9371 26.5737L15.9381 26.4687L15.9404 26.3638L15.9436 26.2587L15.9479 26.1535L15.9534 26.0483L15.9599 25.9432L15.9674 25.8379L15.9762 25.7326L15.986 25.6273L15.9969 25.522L16.0089 25.4167L16.022 25.3114L16.0362 25.2062L16.0516 25.101L16.068 24.9958L16.0856 24.8908L16.1042 24.7857L16.1239 24.6807L16.1448 24.5759L16.1668 24.4712L16.1899 24.3666L16.214 24.2621L16.2393 24.1579L16.2656 24.0537L16.2931 23.9497L16.3217 23.8459L16.3514 23.7423L16.3821 23.6387L16.414 23.5356L16.447 23.4325L16.4811 23.3297L16.5163 23.2272L16.5526 23.1249L16.5899 23.0229L16.6283 22.9211L16.6679 22.8197L16.7086 22.7186L16.7503 22.6176L16.7931 22.5172L16.8369 22.417L16.8819 22.3171L16.9279 22.2176L16.9751 22.1184L17.0232 22.0198L17.0724 21.9213L17.1227 21.8233L17.1741 21.7258L17.2264 21.6287L17.28 21.532L17.3344 21.4357L17.39 21.3399L17.4466 21.2446L17.5043 21.1497L17.5629 21.0553L17.6227 20.9614L17.6834 20.868L17.7451 20.7751L17.8079 20.6828L17.8717 20.5909L17.9365 20.4997L18.0023 20.4091L18.0691 20.3189L18.1368 20.2293L18.2056 20.1404L18.2753 20.052L18.3461 19.9643L18.4178 19.8771L18.4904 19.7907L18.564 19.7048L18.6386 19.6196L18.7141 19.5351L18.7906 19.4512L18.868 19.3681L18.9463 19.2856L19.0256 19.2038L19.1058 19.1228L19.1868 19.0424L19.2689 18.9628L19.3517 18.8839L19.4355 18.8058L19.5201 18.7284L19.6056 18.6518L19.6919 18.5759L19.7793 18.501L19.8673 18.4267L19.9563 18.3533L20.046 18.2807L20.1367 18.2089L20.228 18.138L20.3203 18.0679L20.4133 17.9986L20.5072 17.9302L20.6018 17.8627L20.6972 17.7961L20.7934 17.7302L20.8904 17.6654L20.988 17.6014L21.0865 17.5384L21.1858 17.4763L21.2856 17.415L21.3863 17.3548L21.4876 17.2954L21.5897 17.2371L21.6924 17.1796L21.7958 17.1231L21.8999 17.0677L22.0046 17.0132L22.1101 16.9597L22.2161 16.9072L22.3228 16.8557L22.4301 16.8052L22.538 16.7557L22.6465 16.7073L22.7556 16.6599L22.8654 16.6134L22.9756 16.568L23.0864 16.5238L23.1978 16.4806L23.3097 16.4384L23.4221 16.3973L23.5351 16.3573L23.6487 16.3183L23.7626 16.2805L23.8771 16.2437L23.992 16.2081L24.1075 16.1735L24.2233 16.1401L24.3396 16.1078L24.4563 16.0766L24.5734 16.0465L24.691 16.0175L24.809 15.9898L24.9274 15.9632L25.0461 15.9377L25.1652 15.9133L25.2845 15.8901L25.3445 15.879ZM26.8122 24.4594L25.45 24.7849L25.37 18.0373L25.3058 18.0517L25.2091 18.0745L25.1126 18.0983L25.0167 18.1228L24.921 18.1484L24.8259 18.1748L24.7307 18.2024L24.6366 18.2305L24.5421 18.2598L24.4489 18.2897L24.3554 18.3208L24.2625 18.3527L24.1701 18.3854L24.078 18.419L23.9868 18.4534L23.8957 18.4888L23.805 18.525L23.715 18.562L23.625 18.6001L23.5363 18.6386L23.4475 18.6783L23.3596 18.7186L23.2718 18.76L23.1848 18.8019L23.0981 18.8448L23.0123 18.8884L22.9268 18.9329L22.842 18.9781L22.7577 19.0241L22.6739 19.0709L22.5907 19.1185L22.5085 19.1667L22.4261 19.216L22.3448 19.2658L22.2642 19.3164L22.184 19.3676L22.1044 19.4198L22.0256 19.4726L21.9473 19.5261L21.8697 19.5803L21.7929 19.6351L21.7164 19.6908L21.6408 19.7471L21.5658 19.8041L21.4915 19.8618L21.418 19.9199L21.3452 19.9789L21.2729 20.0386L21.2012 20.099L21.1306 20.1597L21.0605 20.2213L20.9911 20.2833L20.9225 20.3461L20.8545 20.4095L20.7874 20.4735L20.721 20.5379L20.6551 20.6031L20.5902 20.6687L20.5261 20.735L20.4627 20.8017L20.3999 20.8693L20.338 20.937L20.2769 21.0054L20.2166 21.0744L20.1571 21.1437L20.0983 21.2138L20.0405 21.284L19.9831 21.3551L19.9269 21.4264L19.8712 21.4984L19.8165 21.5708L19.7626 21.6435L19.7094 21.7166L19.6572 21.7903L19.6057 21.8645L19.555 21.9389L19.5052 22.014L19.4563 22.0891L19.4082 22.1648L19.3608 22.241L19.3145 22.3173L19.2687 22.3944L19.2241 22.4713L19.1801 22.549L19.137 22.6269L19.0949 22.705L19.0535 22.7835L19.0131 22.8623L18.9734 22.9416L18.9347 23.0208L18.8968 23.1007L18.8598 23.1805L18.8238 23.2608L18.7884 23.3413L18.754 23.4221L18.7206 23.5029L18.688 23.5843L18.6563 23.6657L18.6254 23.7473L18.5954 23.829L18.5664 23.9111L18.5381 23.9934L18.5108 24.0758L18.4844 24.1583L18.4588 24.2411L18.4341 24.324L18.4105 24.4068L18.3876 24.49L18.3655 24.5733L18.3444 24.6566L18.3242 24.7401L18.3048 24.8236L18.2864 24.9073L18.2689 24.9911L18.2522 25.0748L18.2364 25.1586L18.2215 25.2426L18.2076 25.3264L18.1945 25.4103L18.1822 25.4944L18.1708 25.5782L18.1604 25.6624L18.1509 25.7462L18.1421 25.8302L18.1343 25.9143L18.1273 25.9981L18.1213 26.082L18.1161 26.1659L18.1117 26.2496L18.1083 26.3333L18.1057 26.4168L18.104 26.5005L18.1031 26.584L18.1032 26.6673L18.104 26.7505L18.1058 26.8337L18.1084 26.9166L18.1119 26.9995L18.1161 27.0822L18.1213 27.1647L18.1273 27.2471L18.1342 27.3293L18.1419 27.4113L18.1504 27.4934L18.1597 27.5748L18.1699 27.6564L18.1809 27.7375L18.1928 27.8187L18.2055 27.8994L18.2189 27.98L18.2332 28.0605L18.2484 28.1405L18.2643 28.2204L18.281 28.2998L18.2986 28.3792L18.3169 28.4582L18.336 28.537L18.3559 28.6153L18.3767 28.6936L18.3981 28.7713L18.4203 28.8489L18.4433 28.926L18.4671 29.0029L18.4917 29.0794L18.517 29.1553L18.5431 29.2313L18.5699 29.3067L18.5975 29.3817L18.6257 29.4565L18.6548 29.5308L18.6846 29.6047L18.715 29.6782L18.7461 29.7512L18.7782 29.824L18.8108 29.8963L18.8441 29.9682L18.8781 30.0396L18.9128 30.1105L18.9483 30.1813L18.9843 30.2512L19.021 30.3209L19.0585 30.3901L19.0967 30.4588L19.1354 30.5271L19.1748 30.5949L19.2148 30.662L19.2556 30.7289L19.2969 30.7952L19.3388 30.8609L19.3815 30.9263L19.4246 30.9911L19.4685 31.0555L19.5128 31.1189L19.5578 31.1823L19.6034 31.2449L19.6495 31.307L19.6964 31.3687L19.7437 31.4296L19.7916 31.49L19.84 31.5499L19.8891 31.6094L19.9385 31.668L19.9887 31.7263L20.0393 31.7839L20.0903 31.8409L20.1422 31.8974L20.1942 31.9531L20.2469 32.0085L20.3001 32.0631L20.3536 32.1171L20.4079 32.1705L20.4625 32.2233L20.5176 32.2756L20.5731 32.3271L20.6291 32.378L20.6856 32.4284L20.7425 32.478L20.7998 32.5271L20.8575 32.5755L20.9156 32.6233L20.9742 32.6704L21.0333 32.7169L21.0925 32.7626L21.1523 32.8078L21.2125 32.8523L21.273 32.8962L21.3338 32.9393L21.3951 32.9818L21.4566 33.0237L21.5186 33.0648L21.5807 33.1052L21.6432 33.145L21.7064 33.1843L21.7695 33.2226L21.8329 33.2604L21.8969 33.2975L21.9608 33.3338L22.0251 33.3695L22.09 33.4046L22.1549 33.4388L22.22 33.4724L22.2853 33.5053L22.3512 33.5375L22.4169 33.569L22.4832 33.5998L22.5495 33.6299L22.6159 33.6593L22.6828 33.688L22.7498 33.716L22.8168 33.7433L22.8842 33.7699L22.9516 33.7956L23.0195 33.8208L23.0871 33.8453L23.1553 33.869L23.2232 33.892L23.2914 33.9143L23.3598 33.9359L23.4284 33.9568L23.4969 33.9769L23.5656 33.9964L23.6345 34.0151L23.7034 34.0332L23.7723 34.0504L23.8413 34.0671L23.9103 34.0829L23.9795 34.0981L24.0487 34.1126L24.118 34.1263L24.1872 34.1394L24.2565 34.1517L24.3259 34.1634L24.3952 34.1743L24.4646 34.1846L24.5337 34.194L24.6031 34.2028L24.6724 34.2109L24.7417 34.2184L24.811 34.225L24.8802 34.231L24.9494 34.2363L25.0184 34.2409L25.0875 34.2449L25.1564 34.248L25.2252 34.2506L25.2942 34.2524L25.3628 34.2536L25.4313 34.2541L25.4999 34.2538L25.5682 34.253L25.6366 34.2513L25.7048 34.2491L25.7726 34.2463L25.8405 34.2426L25.9084 34.2383L25.9758 34.2334L26.0433 34.2278L26.1104 34.2216L26.1775 34.2147L26.2444 34.207L26.311 34.1989L26.3776 34.19L26.4438 34.1804L26.5097 34.1703L26.5758 34.1595L26.6414 34.1481L26.7067 34.136L26.772 34.1232L26.837 34.1099L26.9015 34.0959L26.9658 34.0814L27.0301 34.0662L27.094 34.0503L27.1576 34.034L27.221 34.017L27.2839 33.9994L27.3469 33.9811L27.4093 33.9623L27.4713 33.9429L27.5334 33.9228L27.5949 33.9022L27.6561 33.8812L27.717 33.8595L27.7775 33.8371L27.8379 33.8142L27.8978 33.7908L27.9572 33.7668L28.0164 33.7423L28.0753 33.7172L28.1339 33.6915L28.1918 33.6654L28.2497 33.6387L28.307 33.6115L28.3639 33.5837L28.4206 33.5555L28.4766 33.5268L28.5325 33.4975L28.588 33.4676L28.6429 33.4373L28.6974 33.4066L28.7516 33.3753L28.8054 33.3435L28.8586 33.3112L28.9114 33.2785L28.9639 33.2453L29.0159 33.2117L29.0675 33.1775L29.1186 33.143L29.1693 33.1079L29.2195 33.0725L29.2692 33.0367L29.3184 33.0003L29.3673 32.9635L29.4156 32.9263L29.4635 32.8887L29.511 32.8507L29.5578 32.8124L29.6042 32.7736L29.6501 32.7344L29.6954 32.6948L29.7405 32.6548L29.7849 32.6144L29.8289 32.5738L29.8721 32.5327L29.9151 32.4913L29.9576 32.4494L29.9995 32.4074L30.0409 32.3649L30.0817 32.322L30.122 32.279L30.1619 32.2354L30.201 32.1918L30.2399 32.1476L30.2781 32.1032L30.3157 32.0586L30.353 32.0135L30.3894 31.9683L30.4256 31.9227L30.4611 31.877L30.496 31.8309L30.5305 31.7844L30.5643 31.738L30.5976 31.6909L30.6305 31.6438L30.6626 31.5966L30.6943 31.5489L30.7255 31.5011L30.7559 31.4532L30.7859 31.4049L30.8153 31.3565L30.8442 31.3078L30.8725 31.259L30.9002 31.2099L30.9274 31.1608L30.954 31.1113L30.98 31.0619L31.0054 31.0121L31.0303 30.9622L31.0547 30.9122L31.0784 30.8619L31.1016 30.8117L31.1241 30.7612L31.1461 30.7107L31.1676 30.6599L31.1884 30.6092L31.2089 30.558L31.2285 30.5073L31.2478 30.4558L31.2662 30.4051L31.2843 30.3536L31.3018 30.3021L31.3186 30.2508L31.3349 30.1992L31.3506 30.1478L31.3658 30.0958L31.3802 30.0445L31.3944 29.9924L31.4078 29.9411L31.4207 29.8891L31.433 29.8371L31.4447 29.7855L31.4558 29.734L31.4664 29.6817L31.4764 29.6301L31.4859 29.578L31.4948 29.5264L31.5032 29.4747L31.511 29.4228L31.5182 29.3709L31.5248 29.3191L31.5309 29.2676L31.5365 29.2162L31.5414 29.1643L31.5459 29.1129L31.5498 29.0614L31.5531 29.01L31.556 28.9587L31.5582 28.9075L31.5599 28.8566L31.5611 28.8053L31.5618 28.7541L31.5619 28.7034L31.5614 28.6527L31.5605 28.6021L31.5589 28.5517L31.5569 28.501L31.5543 28.4512L31.5513 28.4004L31.5477 28.3509L31.5436 28.3011L31.539 28.251L31.5338 28.2015L31.5282 28.1525L31.5219 28.1027L31.5153 28.054L31.5081 28.005L31.5006 27.9566L31.4923 27.9078L31.4837 27.8594L31.4746 27.8114L31.465 27.7635L31.4548 27.7155L31.4442 27.6681L31.4332 27.6208L31.4216 27.5737L31.4097 27.527L31.397 27.48L31.3843 27.4339L31.3708 27.3874L31.357 27.3416L31.3427 27.2959L31.3279 27.2505L31.3126 27.2052L31.2969 27.1601L31.281 27.1156L31.2644 27.0713L31.2474 27.0269L31.23 26.9832L31.2122 26.9392L31.1941 26.8963L31.1753 26.8529L31.1564 26.8103L31.1369 26.768L31.1171 26.7256L31.0968 26.6838L31.0762 26.6422L31.0551 26.6008L31.0337 26.56L31.0119 26.5193L30.9898 26.479L30.9672 26.4389L30.9442 26.3992L30.921 26.3599L30.8974 26.3209L30.8732 26.282L30.8489 26.2438L30.8242 26.2058L30.7991 26.1681L30.7737 26.1306L30.7481 26.0937L30.722 26.057L30.6956 26.0207L30.6689 25.9848L30.6418 25.9492L30.6147 25.914L30.5869 25.879L30.559 25.8446L30.5308 25.8104L30.5023 25.7766L30.4734 25.7432L30.4445 25.7102L30.4151 25.6776L30.3854 25.6453L30.3555 25.6133L30.3254 25.5819L30.2949 25.5508L30.2641 25.52L30.2333 25.4897L30.2021 25.4598L30.1708 25.4303L30.1389 25.4009L30.1072 25.3722L30.075 25.3437L30.0428 25.3159L30.0102 25.2882L29.9774 25.2611L29.9445 25.2343L29.9114 25.208L29.878 25.182L29.8445 25.1563L29.8108 25.1313L29.7769 25.1064L29.7427 25.0821L29.7086 25.0582L29.6742 25.0346L29.6397 25.0115L29.6049 24.9888L29.5699 24.9665L29.5351 24.9446L29.4997 24.9231L29.4645 24.9021L29.4292 24.8815L29.3936 24.8613L29.3578 24.8415L29.3221 24.8221L29.2863 24.8031L29.2503 24.7845L29.2143 24.7664L29.1779 24.7486L29.1418 24.7313L29.1054 24.7145L29.069 24.698L29.0324 24.6819L28.9957 24.6662L28.9593 24.6511L28.9224 24.6363L28.8855 24.6219L28.8488 24.6079L28.8119 24.5944L28.775 24.5812L28.7381 24.5685L28.7011 24.5561L28.6642 24.5442L28.6271 24.5327L28.59 24.5216L28.5531 24.5109L28.5158 24.5006L28.4789 24.4908L28.4418 24.4814L28.4047 24.4723L28.3676 24.4636L28.3306 24.4554L28.2935 24.4476L28.2565 24.4401L28.2196 24.433L28.1827 24.4264L28.1456 24.4202L28.109 24.4144L28.0719 24.4089L28.0353 24.4038L27.9985 24.3991L27.9618 24.3949L27.9254 24.391L27.8888 24.3875L27.8524 24.3843L27.816 24.3816L27.7797 24.3793L27.7434 24.3773L27.7073 24.3757L27.6715 24.3745L27.6354 24.3736L27.5996 24.3731L27.5638 24.373L27.5282 24.3734L27.4927 24.3739L27.4573 24.3749L27.422 24.3763L27.387 24.378L27.3518 24.3801L27.317 24.3825L27.2823 24.3852L27.2477 24.3884L27.2133 24.3918L27.1788 24.3956L27.1447 24.3997L27.1107 24.4042L27.0769 24.409L27.0431 24.4142L27.0096 24.4197L26.9762 24.4255L26.9432 24.4316L26.91 24.4381L26.8773 24.4449L26.8445 24.4519L26.8122 24.4594Z" fill="#1DAEFF"/>
</svg>
